<mxfile host="65bd71144e">
    <diagram id="XT5RWsQJMbZ5xlxN2SPm" name="Purpose">
        <mxGraphModel dx="1758" dy="1142" grid="1" gridSize="10" guides="1" tooltips="1" connect="1" arrows="1" fold="1" page="1" pageScale="1" pageWidth="850" pageHeight="1100" math="0" shadow="0">
            <root>
                <mxCell id="Z1r87bh07Q4kdgTKkpLT-0"/>
                <mxCell id="Z1r87bh07Q4kdgTKkpLT-1" parent="Z1r87bh07Q4kdgTKkpLT-0"/>
                <mxCell id="Z1r87bh07Q4kdgTKkpLT-2" value="" style="shape=actor;whiteSpace=wrap;html=1;" parent="Z1r87bh07Q4kdgTKkpLT-1" vertex="1">
                    <mxGeometry x="410" y="630" width="90" height="110" as="geometry"/>
                </mxCell>
                <mxCell id="Z1r87bh07Q4kdgTKkpLT-3" value="user" style="ellipse;shape=cloud;whiteSpace=wrap;html=1;" parent="Z1r87bh07Q4kdgTKkpLT-1" vertex="1">
                    <mxGeometry x="140" y="560" width="140" height="100" as="geometry"/>
                </mxCell>
                <mxCell id="Z1r87bh07Q4kdgTKkpLT-4" value="order" style="ellipse;shape=cloud;whiteSpace=wrap;html=1;" parent="Z1r87bh07Q4kdgTKkpLT-1" vertex="1">
                    <mxGeometry x="600" y="570" width="140" height="100" as="geometry"/>
                </mxCell>
                <mxCell id="Z1r87bh07Q4kdgTKkpLT-5" value="product" style="ellipse;shape=cloud;whiteSpace=wrap;html=1;" parent="Z1r87bh07Q4kdgTKkpLT-1" vertex="1">
                    <mxGeometry x="490" y="410" width="140" height="100" as="geometry"/>
                </mxCell>
                <mxCell id="0" value="company" style="ellipse;shape=cloud;whiteSpace=wrap;html=1;" parent="Z1r87bh07Q4kdgTKkpLT-1" vertex="1">
                    <mxGeometry x="270" y="410" width="140" height="100" as="geometry"/>
                </mxCell>
            </root>
        </mxGraphModel>
    </diagram>
    <diagram id="oQUrutp8R_TZUYEDm6Ez" name="ER">
        <mxGraphModel dx="2393" dy="909" grid="1" gridSize="10" guides="1" tooltips="1" connect="1" arrows="1" fold="1" page="1" pageScale="1" pageWidth="850" pageHeight="1100" math="0" shadow="0">
            <root>
                <mxCell id="0"/>
                <mxCell id="1" parent="0"/>
                <mxCell id="18" style="edgeStyle=elbowEdgeStyle;html=1;exitX=0;exitY=0.5;exitDx=0;exitDy=0;endArrow=none;endFill=0;" parent="1" source="2" target="5" edge="1">
                    <mxGeometry relative="1" as="geometry"/>
                </mxCell>
                <mxCell id="19" style="edgeStyle=elbowEdgeStyle;html=1;endArrow=none;endFill=0;" parent="1" source="2" target="12" edge="1">
                    <mxGeometry relative="1" as="geometry"/>
                </mxCell>
                <mxCell id="20" style="html=1;entryX=1;entryY=0.625;entryDx=0;entryDy=0;entryPerimeter=0;elbow=vertical;edgeStyle=orthogonalEdgeStyle;endArrow=none;endFill=0;" parent="1" source="2" target="3" edge="1">
                    <mxGeometry relative="1" as="geometry"/>
                </mxCell>
                <mxCell id="21" style="edgeStyle=orthogonalEdgeStyle;html=1;entryX=0;entryY=0.5;entryDx=0;entryDy=0;elbow=vertical;endArrow=none;endFill=0;" parent="1" source="2" target="14" edge="1">
                    <mxGeometry relative="1" as="geometry"/>
                </mxCell>
                <mxCell id="522" style="edgeStyle=none;html=1;startArrow=ERmany;startFill=0;endArrow=none;endFill=0;elbow=vertical;" parent="1" source="2" target="518" edge="1">
                    <mxGeometry relative="1" as="geometry"/>
                </mxCell>
                <mxCell id="2" value="order" style="whiteSpace=wrap;html=1;aspect=fixed;fillColor=#e3c800;fontColor=#000000;strokeColor=#B09500;" parent="1" vertex="1">
                    <mxGeometry x="335" y="280" width="150" height="150" as="geometry"/>
                </mxCell>
                <mxCell id="3" value="payment" style="ellipse;whiteSpace=wrap;html=1;fillColor=#6d8764;strokeColor=#3A5431;fontColor=#ffffff;" parent="1" vertex="1">
                    <mxGeometry x="85" y="300" width="120" height="80" as="geometry"/>
                </mxCell>
                <mxCell id="5" value="name" style="ellipse;whiteSpace=wrap;html=1;fillColor=#6a00ff;fontColor=#ffffff;strokeColor=#3700CC;" parent="1" vertex="1">
                    <mxGeometry x="145" y="140" width="120" height="80" as="geometry"/>
                </mxCell>
                <mxCell id="12" value="user_id" style="ellipse;whiteSpace=wrap;html=1;fillColor=#6d8764;strokeColor=#3A5431;fontColor=#ffffff;" parent="1" vertex="1">
                    <mxGeometry x="145" y="470" width="120" height="80" as="geometry"/>
                </mxCell>
                <mxCell id="14" value="categories" style="ellipse;whiteSpace=wrap;html=1;fillColor=#6a00ff;fontColor=#ffffff;strokeColor=#3700CC;" parent="1" vertex="1">
                    <mxGeometry x="575" y="140" width="120" height="80" as="geometry"/>
                </mxCell>
                <mxCell id="27" style="edgeStyle=orthogonalEdgeStyle;html=1;entryX=0.5;entryY=1;entryDx=0;entryDy=0;elbow=vertical;endArrow=none;endFill=0;" parent="1" source="23" target="26" edge="1">
                    <mxGeometry relative="1" as="geometry"/>
                </mxCell>
                <mxCell id="28" style="edgeStyle=orthogonalEdgeStyle;html=1;entryX=0.5;entryY=1;entryDx=0;entryDy=0;elbow=vertical;endArrow=none;endFill=0;" parent="1" source="23" edge="1">
                    <mxGeometry relative="1" as="geometry">
                        <mxPoint x="1045" y="230" as="targetPoint"/>
                    </mxGeometry>
                </mxCell>
                <mxCell id="29" style="edgeStyle=orthogonalEdgeStyle;html=1;elbow=vertical;endArrow=none;endFill=0;" parent="1" source="23" target="25" edge="1">
                    <mxGeometry relative="1" as="geometry"/>
                </mxCell>
                <mxCell id="4gCffzTK_fGfEqGINZE1-522" style="edgeStyle=none;html=1;entryX=1;entryY=0.75;entryDx=0;entryDy=0;startArrow=ERmany;startFill=0;endArrow=ERmany;endFill=0;elbow=vertical;" parent="1" source="23" target="2" edge="1">
                    <mxGeometry relative="1" as="geometry">
                        <Array as="points">
                            <mxPoint x="1150" y="520"/>
                            <mxPoint x="810" y="520"/>
                            <mxPoint x="810" y="393"/>
                        </Array>
                    </mxGeometry>
                </mxCell>
                <mxCell id="CF2H_EIHHxxAqOu12wUf-523" style="edgeStyle=none;html=1;" parent="1" source="23" edge="1">
                    <mxGeometry relative="1" as="geometry">
                        <mxPoint x="900" y="350" as="targetPoint"/>
                        <Array as="points">
                            <mxPoint x="1020" y="460"/>
                            <mxPoint x="900" y="460"/>
                        </Array>
                    </mxGeometry>
                </mxCell>
                <mxCell id="CF2H_EIHHxxAqOu12wUf-531" style="edgeStyle=none;html=1;exitX=0.441;exitY=1.023;exitDx=0;exitDy=0;exitPerimeter=0;endArrow=none;endFill=0;" parent="1" source="23" target="CF2H_EIHHxxAqOu12wUf-524" edge="1">
                    <mxGeometry relative="1" as="geometry">
                        <Array as="points">
                            <mxPoint x="1200" y="580"/>
                            <mxPoint x="1380" y="580"/>
                        </Array>
                    </mxGeometry>
                </mxCell>
                <mxCell id="23" value="product" style="whiteSpace=wrap;html=1;aspect=fixed;fillColor=#647687;fontColor=#ffffff;strokeColor=#314354;" parent="1" vertex="1">
                    <mxGeometry x="1125" y="310" width="150" height="150" as="geometry"/>
                </mxCell>
                <mxCell id="24" value="product-id" style="ellipse;whiteSpace=wrap;html=1;fillColor=#1ba1e2;fontColor=#ffffff;strokeColor=#006EAF;" parent="1" vertex="1">
                    <mxGeometry x="995" y="150" width="120" height="80" as="geometry"/>
                </mxCell>
                <mxCell id="25" value="price" style="ellipse;whiteSpace=wrap;html=1;fillColor=#1ba1e2;fontColor=#ffffff;strokeColor=#006EAF;" parent="1" vertex="1">
                    <mxGeometry x="1140" y="120" width="120" height="80" as="geometry"/>
                </mxCell>
                <mxCell id="26" value="name" style="ellipse;whiteSpace=wrap;html=1;fillColor=#1ba1e2;fontColor=#ffffff;strokeColor=#006EAF;" parent="1" vertex="1">
                    <mxGeometry x="1310" y="150" width="120" height="80" as="geometry"/>
                </mxCell>
                <mxCell id="46" value="order_id" style="ellipse;whiteSpace=wrap;html=1;fillColor=#6d8764;strokeColor=#3A5431;fontColor=#ffffff;" parent="1" vertex="1">
                    <mxGeometry x="145" y="140" width="120" height="80" as="geometry"/>
                </mxCell>
                <mxCell id="48" value="date" style="ellipse;whiteSpace=wrap;html=1;fillColor=#6d8764;strokeColor=#3A5431;fontColor=#ffffff;" parent="1" vertex="1">
                    <mxGeometry x="575" y="140" width="120" height="80" as="geometry"/>
                </mxCell>
                <mxCell id="499" style="html=1;entryX=0.5;entryY=0;entryDx=0;entryDy=0;" parent="1" source="505" target="508" edge="1">
                    <mxGeometry relative="1" as="geometry"/>
                </mxCell>
                <mxCell id="500" style="edgeStyle=elbowEdgeStyle;html=1;exitX=0;exitY=0.5;exitDx=0;exitDy=0;endArrow=none;endFill=0;" parent="1" source="505" target="507" edge="1">
                    <mxGeometry relative="1" as="geometry"/>
                </mxCell>
                <mxCell id="501" style="edgeStyle=elbowEdgeStyle;html=1;endArrow=none;endFill=0;" parent="1" source="505" target="509" edge="1">
                    <mxGeometry relative="1" as="geometry"/>
                </mxCell>
                <mxCell id="502" style="html=1;entryX=1;entryY=0.625;entryDx=0;entryDy=0;entryPerimeter=0;elbow=vertical;edgeStyle=orthogonalEdgeStyle;endArrow=none;endFill=0;" parent="1" source="505" target="506" edge="1">
                    <mxGeometry relative="1" as="geometry"/>
                </mxCell>
                <mxCell id="503" style="edgeStyle=orthogonalEdgeStyle;html=1;entryX=0;entryY=0.5;entryDx=0;entryDy=0;elbow=vertical;endArrow=none;endFill=0;" parent="1" source="505" target="511" edge="1">
                    <mxGeometry relative="1" as="geometry">
                        <Array as="points">
                            <mxPoint x="-20" y="815"/>
                            <mxPoint x="-20" y="640"/>
                        </Array>
                    </mxGeometry>
                </mxCell>
                <mxCell id="521" style="html=1;startArrow=ERone;startFill=0;endArrow=none;endFill=0;elbow=vertical;entryX=0.5;entryY=1;entryDx=0;entryDy=0;exitX=0.5;exitY=1;exitDx=0;exitDy=0;" parent="1" source="505" target="518" edge="1">
                    <mxGeometry relative="1" as="geometry">
                        <mxPoint x="-165" y="920" as="targetPoint"/>
                        <Array as="points">
                            <mxPoint x="-165" y="1070"/>
                            <mxPoint x="410" y="1070"/>
                        </Array>
                    </mxGeometry>
                </mxCell>
                <mxCell id="505" value="user" style="whiteSpace=wrap;html=1;aspect=fixed;fillColor=#f0a30a;fontColor=#000000;strokeColor=#BD7000;" parent="1" vertex="1">
                    <mxGeometry x="-240" y="740" width="150" height="150" as="geometry"/>
                </mxCell>
                <mxCell id="506" value="lName" style="ellipse;whiteSpace=wrap;html=1;fillColor=#76608a;strokeColor=#432D57;fontColor=#ffffff;" parent="1" vertex="1">
                    <mxGeometry x="-490" y="760" width="120" height="80" as="geometry"/>
                </mxCell>
                <mxCell id="507" value="name" style="ellipse;whiteSpace=wrap;html=1;fillColor=#6a00ff;fontColor=#ffffff;strokeColor=#3700CC;" parent="1" vertex="1">
                    <mxGeometry x="-430" y="600" width="120" height="80" as="geometry"/>
                </mxCell>
                <mxCell id="508" value="user-id" style="ellipse;whiteSpace=wrap;html=1;fillColor=#76608a;strokeColor=#432D57;fontColor=#ffffff;" parent="1" vertex="1">
                    <mxGeometry x="-225" y="540" width="120" height="80" as="geometry"/>
                </mxCell>
                <mxCell id="509" value="birthday" style="ellipse;whiteSpace=wrap;html=1;fillColor=#76608a;strokeColor=#432D57;fontColor=#ffffff;" parent="1" vertex="1">
                    <mxGeometry x="-430" y="930" width="120" height="80" as="geometry"/>
                </mxCell>
                <mxCell id="511" value="categories" style="ellipse;whiteSpace=wrap;html=1;fillColor=#6a00ff;fontColor=#ffffff;strokeColor=#3700CC;" parent="1" vertex="1">
                    <mxGeometry y="600" width="120" height="80" as="geometry"/>
                </mxCell>
                <mxCell id="512" value="fName" style="ellipse;whiteSpace=wrap;html=1;fillColor=#76608a;strokeColor=#432D57;fontColor=#ffffff;" parent="1" vertex="1">
                    <mxGeometry x="-430" y="600" width="120" height="80" as="geometry"/>
                </mxCell>
                <mxCell id="513" value="Email" style="ellipse;whiteSpace=wrap;html=1;fillColor=#76608a;strokeColor=#432D57;fontColor=#ffffff;" parent="1" vertex="1">
                    <mxGeometry y="600" width="120" height="80" as="geometry"/>
                </mxCell>
                <mxCell id="517" style="edgeStyle=orthogonalEdgeStyle;html=1;startArrow=none;startFill=0;endArrow=none;endFill=0;elbow=vertical;" parent="1" source="515" target="505" edge="1">
                    <mxGeometry relative="1" as="geometry">
                        <Array as="points">
                            <mxPoint x="-20" y="815"/>
                        </Array>
                    </mxGeometry>
                </mxCell>
                <mxCell id="515" value="address" style="ellipse;whiteSpace=wrap;html=1;fillColor=#76608a;strokeColor=#432D57;fontColor=#ffffff;" parent="1" vertex="1">
                    <mxGeometry x="-80" y="940" width="120" height="80" as="geometry"/>
                </mxCell>
                <mxCell id="518" value="make" style="rhombus;whiteSpace=wrap;html=1;fillColor=#a0522d;strokeColor=#6D1F00;fontColor=#ffffff;" parent="1" vertex="1">
                    <mxGeometry x="330" y="740" width="160" height="160" as="geometry"/>
                </mxCell>
                <mxCell id="CF2H_EIHHxxAqOu12wUf-522" value="company_id" style="ellipse;whiteSpace=wrap;html=1;fillColor=#1ba1e2;fontColor=#ffffff;strokeColor=#006EAF;" parent="1" vertex="1">
                    <mxGeometry x="840" y="280" width="120" height="80" as="geometry"/>
                </mxCell>
                <mxCell id="CF2H_EIHHxxAqOu12wUf-524" value="description" style="ellipse;whiteSpace=wrap;html=1;fillColor=#1ba1e2;fontColor=#ffffff;strokeColor=#006EAF;" parent="1" vertex="1">
                    <mxGeometry x="1320" y="440" width="120" height="80" as="geometry"/>
                </mxCell>
                <mxCell id="CF2H_EIHHxxAqOu12wUf-533" style="edgeStyle=none;html=1;entryX=1.01;entryY=0.617;entryDx=0;entryDy=0;entryPerimeter=0;endArrow=ERmany;endFill=0;exitX=0.995;exitY=0.568;exitDx=0;exitDy=0;exitPerimeter=0;startArrow=ERone;startFill=0;" parent="1" source="CF2H_EIHHxxAqOu12wUf-532" target="23" edge="1">
                    <mxGeometry relative="1" as="geometry">
                        <Array as="points">
                            <mxPoint x="1580" y="848"/>
                            <mxPoint x="1580" y="403"/>
                        </Array>
                    </mxGeometry>
                </mxCell>
                <mxCell id="CF2H_EIHHxxAqOu12wUf-538" style="edgeStyle=none;html=1;entryX=1;entryY=0.5;entryDx=0;entryDy=0;startArrow=none;startFill=0;endArrow=none;endFill=0;" parent="1" source="CF2H_EIHHxxAqOu12wUf-532" target="CF2H_EIHHxxAqOu12wUf-536" edge="1">
                    <mxGeometry relative="1" as="geometry"/>
                </mxCell>
                <mxCell id="CF2H_EIHHxxAqOu12wUf-539" style="edgeStyle=none;html=1;entryX=0.5;entryY=1;entryDx=0;entryDy=0;startArrow=none;startFill=0;endArrow=none;endFill=0;" parent="1" source="CF2H_EIHHxxAqOu12wUf-532" target="CF2H_EIHHxxAqOu12wUf-535" edge="1">
                    <mxGeometry relative="1" as="geometry"/>
                </mxCell>
                <mxCell id="CF2H_EIHHxxAqOu12wUf-540" style="edgeStyle=none;html=1;exitX=1;exitY=0.5;exitDx=0;exitDy=0;entryX=0.5;entryY=1;entryDx=0;entryDy=0;startArrow=none;startFill=0;endArrow=none;endFill=0;" parent="1" source="CF2H_EIHHxxAqOu12wUf-532" target="CF2H_EIHHxxAqOu12wUf-534" edge="1">
                    <mxGeometry relative="1" as="geometry">
                        <Array as="points">
                            <mxPoint x="1400" y="840"/>
                        </Array>
                    </mxGeometry>
                </mxCell>
                <mxCell id="CF2H_EIHHxxAqOu12wUf-541" style="edgeStyle=none;html=1;entryX=-0.005;entryY=0.614;entryDx=0;entryDy=0;entryPerimeter=0;startArrow=none;startFill=0;endArrow=none;endFill=0;exitX=0.5;exitY=1;exitDx=0;exitDy=0;" parent="1" source="CF2H_EIHHxxAqOu12wUf-532" target="CF2H_EIHHxxAqOu12wUf-537" edge="1">
                    <mxGeometry relative="1" as="geometry">
                        <Array as="points">
                            <mxPoint x="1200" y="929"/>
                        </Array>
                    </mxGeometry>
                </mxCell>
                <mxCell id="CF2H_EIHHxxAqOu12wUf-532" value="company" style="whiteSpace=wrap;html=1;aspect=fixed;fillColor=#f0a30a;fontColor=#000000;strokeColor=#BD7000;" parent="1" vertex="1">
                    <mxGeometry x="1140" y="780" width="120" height="120" as="geometry"/>
                </mxCell>
                <mxCell id="CF2H_EIHHxxAqOu12wUf-534" value="phone.number" style="ellipse;whiteSpace=wrap;html=1;fillColor=#0050ef;fontColor=#ffffff;strokeColor=#001DBC;" parent="1" vertex="1">
                    <mxGeometry x="1340" y="710" width="120" height="80" as="geometry"/>
                </mxCell>
                <mxCell id="CF2H_EIHHxxAqOu12wUf-535" value="name" style="ellipse;whiteSpace=wrap;html=1;fillColor=#0050ef;fontColor=#ffffff;strokeColor=#001DBC;" parent="1" vertex="1">
                    <mxGeometry x="1140" y="650" width="120" height="80" as="geometry"/>
                </mxCell>
                <mxCell id="CF2H_EIHHxxAqOu12wUf-536" value="company_id" style="ellipse;whiteSpace=wrap;html=1;fillColor=#0050ef;fontColor=#ffffff;strokeColor=#001DBC;" parent="1" vertex="1">
                    <mxGeometry x="940" y="800" width="120" height="80" as="geometry"/>
                </mxCell>
                <mxCell id="CF2H_EIHHxxAqOu12wUf-537" value="address" style="ellipse;whiteSpace=wrap;html=1;fillColor=#0050ef;fontColor=#ffffff;strokeColor=#001DBC;" parent="1" vertex="1">
                    <mxGeometry x="1340" y="880" width="120" height="80" as="geometry"/>
                </mxCell>
            </root>
        </mxGraphModel>
    </diagram>
    <diagram id="j5nre7r2U7XpqjV53Cln" name="UML">
        <mxGraphModel dx="1543" dy="909" grid="1" gridSize="10" guides="1" tooltips="1" connect="1" arrows="1" fold="1" page="1" pageScale="1" pageWidth="850" pageHeight="1100" math="0" shadow="0">
            <root>
                <mxCell id="KrHck_5sRDtyPcJlfYBD-0"/>
                <mxCell id="KrHck_5sRDtyPcJlfYBD-1" parent="KrHck_5sRDtyPcJlfYBD-0"/>
                <mxCell id="KrHck_5sRDtyPcJlfYBD-2" value="User" style="swimlane;fontStyle=1;align=center;verticalAlign=top;childLayout=stackLayout;horizontal=1;startSize=26;horizontalStack=0;resizeParent=1;resizeParentMax=0;resizeLast=0;collapsible=1;marginBottom=0;fillColor=#f0a30a;fontColor=#000000;strokeColor=#BD7000;" parent="KrHck_5sRDtyPcJlfYBD-1" vertex="1">
                    <mxGeometry x="10" y="90" width="210" height="182" as="geometry"/>
                </mxCell>
                <mxCell id="KrHck_5sRDtyPcJlfYBD-3" value="+ user-id: int" style="text;strokeColor=none;fillColor=none;align=left;verticalAlign=top;spacingLeft=4;spacingRight=4;overflow=hidden;rotatable=0;points=[[0,0.5],[1,0.5]];portConstraint=eastwest;" parent="KrHck_5sRDtyPcJlfYBD-2" vertex="1">
                    <mxGeometry y="26" width="210" height="26" as="geometry"/>
                </mxCell>
                <mxCell id="KrHck_5sRDtyPcJlfYBD-5" value="+ fName: string" style="text;strokeColor=none;fillColor=none;align=left;verticalAlign=top;spacingLeft=4;spacingRight=4;overflow=hidden;rotatable=0;points=[[0,0.5],[1,0.5]];portConstraint=eastwest;" parent="KrHck_5sRDtyPcJlfYBD-2" vertex="1">
                    <mxGeometry y="52" width="210" height="26" as="geometry"/>
                </mxCell>
                <mxCell id="oA4Gj_5e85LFypiGyHCA-0" value="+ lName: string" style="text;strokeColor=none;fillColor=none;align=left;verticalAlign=top;spacingLeft=4;spacingRight=4;overflow=hidden;rotatable=0;points=[[0,0.5],[1,0.5]];portConstraint=eastwest;" parent="KrHck_5sRDtyPcJlfYBD-2" vertex="1">
                    <mxGeometry y="78" width="210" height="26" as="geometry"/>
                </mxCell>
                <mxCell id="oA4Gj_5e85LFypiGyHCA-1" value="+ birthday: date" style="text;strokeColor=none;fillColor=none;align=left;verticalAlign=top;spacingLeft=4;spacingRight=4;overflow=hidden;rotatable=0;points=[[0,0.5],[1,0.5]];portConstraint=eastwest;" parent="KrHck_5sRDtyPcJlfYBD-2" vertex="1">
                    <mxGeometry y="104" width="210" height="26" as="geometry"/>
                </mxCell>
                <mxCell id="lVmgNMVg4dFgf8hAwMm7-0" value="+ address: string" style="text;strokeColor=none;fillColor=none;align=left;verticalAlign=top;spacingLeft=4;spacingRight=4;overflow=hidden;rotatable=0;points=[[0,0.5],[1,0.5]];portConstraint=eastwest;" parent="KrHck_5sRDtyPcJlfYBD-2" vertex="1">
                    <mxGeometry y="130" width="210" height="26" as="geometry"/>
                </mxCell>
                <mxCell id="uCeK6E00POuSM-bTVgkk-0" value="+ email: string" style="text;strokeColor=none;fillColor=none;align=left;verticalAlign=top;spacingLeft=4;spacingRight=4;overflow=hidden;rotatable=0;points=[[0,0.5],[1,0.5]];portConstraint=eastwest;" vertex="1" parent="KrHck_5sRDtyPcJlfYBD-2">
                    <mxGeometry y="156" width="210" height="26" as="geometry"/>
                </mxCell>
                <mxCell id="ybXVbxP4m6ssrBYqGO1Z-1" style="edgeStyle=none;html=1;startArrow=ERmany;startFill=0;endArrow=ERmany;endFill=0;elbow=vertical;entryX=-0.017;entryY=0.782;entryDx=0;entryDy=0;entryPerimeter=0;" parent="KrHck_5sRDtyPcJlfYBD-1" source="6DB9jGM7YST2FP24-loR-1" target="sNSFRBDaf6N2lRxo8GV_-0" edge="1">
                    <mxGeometry relative="1" as="geometry">
                        <mxPoint x="703" y="780" as="targetPoint"/>
                        <Array as="points">
                            <mxPoint x="360" y="679"/>
                            <mxPoint x="400" y="679"/>
                        </Array>
                    </mxGeometry>
                </mxCell>
                <mxCell id="6DB9jGM7YST2FP24-loR-1" value="order" style="swimlane;fontStyle=0;childLayout=stackLayout;horizontal=1;startSize=26;fillColor=#e3c800;horizontalStack=0;resizeParent=1;resizeParentMax=0;resizeLast=0;collapsible=1;marginBottom=0;fontColor=#000000;strokeColor=#B09500;" parent="KrHck_5sRDtyPcJlfYBD-1" vertex="1">
                    <mxGeometry x="250" y="350" width="220" height="130" as="geometry"/>
                </mxCell>
                <mxCell id="6DB9jGM7YST2FP24-loR-2" value="+ user_id: int" style="text;strokeColor=none;fillColor=none;align=left;verticalAlign=top;spacingLeft=4;spacingRight=4;overflow=hidden;rotatable=0;points=[[0,0.5],[1,0.5]];portConstraint=eastwest;" parent="6DB9jGM7YST2FP24-loR-1" vertex="1">
                    <mxGeometry y="26" width="220" height="26" as="geometry"/>
                </mxCell>
                <mxCell id="1scakE8m_3COYiYGNNTX-0" value="+ order_id: int" style="text;strokeColor=none;fillColor=none;align=left;verticalAlign=top;spacingLeft=4;spacingRight=4;overflow=hidden;rotatable=0;points=[[0,0.5],[1,0.5]];portConstraint=eastwest;" parent="6DB9jGM7YST2FP24-loR-1" vertex="1">
                    <mxGeometry y="52" width="220" height="26" as="geometry"/>
                </mxCell>
                <mxCell id="6DB9jGM7YST2FP24-loR-3" value="+ payment: int" style="text;strokeColor=none;fillColor=none;align=left;verticalAlign=top;spacingLeft=4;spacingRight=4;overflow=hidden;rotatable=0;points=[[0,0.5],[1,0.5]];portConstraint=eastwest;" parent="6DB9jGM7YST2FP24-loR-1" vertex="1">
                    <mxGeometry y="78" width="220" height="26" as="geometry"/>
                </mxCell>
                <mxCell id="6DB9jGM7YST2FP24-loR-4" value="+ date: string" style="text;strokeColor=none;fillColor=none;align=left;verticalAlign=top;spacingLeft=4;spacingRight=4;overflow=hidden;rotatable=0;points=[[0,0.5],[1,0.5]];portConstraint=eastwest;" parent="6DB9jGM7YST2FP24-loR-1" vertex="1">
                    <mxGeometry y="104" width="220" height="26" as="geometry"/>
                </mxCell>
                <mxCell id="8Ly8QPqjwitYBZrswOG9-0" style="edgeStyle=none;html=1;exitX=0.47;exitY=1.103;exitDx=0;exitDy=0;exitPerimeter=0;startArrow=ERmany;startFill=0;endArrow=ERone;endFill=0;" edge="1" parent="KrHck_5sRDtyPcJlfYBD-1" source="NFTxatdmE4JJY1dqV4X0-0">
                    <mxGeometry relative="1" as="geometry">
                        <mxPoint x="680" y="840" as="targetPoint"/>
                        <Array as="points">
                            <mxPoint x="539" y="840"/>
                        </Array>
                    </mxGeometry>
                </mxCell>
                <mxCell id="JVop_qWaFeMngkwlwgnN-0" value="product" style="swimlane;fontStyle=1;align=center;verticalAlign=top;childLayout=stackLayout;horizontal=1;startSize=26;horizontalStack=0;resizeParent=1;resizeParentMax=0;resizeLast=0;collapsible=1;marginBottom=0;fillColor=#647687;fontColor=#ffffff;strokeColor=#314354;" parent="KrHck_5sRDtyPcJlfYBD-1" vertex="1">
                    <mxGeometry x="450" y="580" width="190" height="182" as="geometry"/>
                </mxCell>
                <mxCell id="JVop_qWaFeMngkwlwgnN-3" value="+ name : string   " style="text;strokeColor=none;fillColor=none;align=left;verticalAlign=top;spacingLeft=4;spacingRight=4;overflow=hidden;rotatable=0;points=[[0,0.5],[1,0.5]];portConstraint=eastwest;" parent="JVop_qWaFeMngkwlwgnN-0" vertex="1">
                    <mxGeometry y="26" width="190" height="26" as="geometry"/>
                </mxCell>
                <mxCell id="shdpWYiQaCSLmMFtS_aV-0" value="+ company_id : int   " style="text;strokeColor=none;fillColor=none;align=left;verticalAlign=top;spacingLeft=4;spacingRight=4;overflow=hidden;rotatable=0;points=[[0,0.5],[1,0.5]];portConstraint=eastwest;" vertex="1" parent="JVop_qWaFeMngkwlwgnN-0">
                    <mxGeometry y="52" width="190" height="26" as="geometry"/>
                </mxCell>
                <mxCell id="sNSFRBDaf6N2lRxo8GV_-0" value="+ product_id: int" style="text;strokeColor=none;fillColor=none;align=left;verticalAlign=top;spacingLeft=4;spacingRight=4;overflow=hidden;rotatable=0;points=[[0,0.5],[1,0.5]];portConstraint=eastwest;" parent="JVop_qWaFeMngkwlwgnN-0" vertex="1">
                    <mxGeometry y="78" width="190" height="26" as="geometry"/>
                </mxCell>
                <mxCell id="UkPHISmVpQ-jFL5yr_aE-0" value="+ price: int" style="text;strokeColor=none;fillColor=none;align=left;verticalAlign=top;spacingLeft=4;spacingRight=4;overflow=hidden;rotatable=0;points=[[0,0.5],[1,0.5]];portConstraint=eastwest;" vertex="1" parent="JVop_qWaFeMngkwlwgnN-0">
                    <mxGeometry y="104" width="190" height="26" as="geometry"/>
                </mxCell>
                <mxCell id="gOqkCBJ9zNmyb3Dsvj0c-0" value="+ description: text" style="text;strokeColor=none;fillColor=none;align=left;verticalAlign=top;spacingLeft=4;spacingRight=4;overflow=hidden;rotatable=0;points=[[0,0.5],[1,0.5]];portConstraint=eastwest;" vertex="1" parent="JVop_qWaFeMngkwlwgnN-0">
                    <mxGeometry y="130" width="190" height="26" as="geometry"/>
                </mxCell>
                <mxCell id="NFTxatdmE4JJY1dqV4X0-0" value="+ description: text" style="text;strokeColor=none;fillColor=none;align=left;verticalAlign=top;spacingLeft=4;spacingRight=4;overflow=hidden;rotatable=0;points=[[0,0.5],[1,0.5]];portConstraint=eastwest;" vertex="1" parent="JVop_qWaFeMngkwlwgnN-0">
                    <mxGeometry y="156" width="190" height="26" as="geometry"/>
                </mxCell>
                <mxCell id="ybXVbxP4m6ssrBYqGO1Z-0" style="edgeStyle=none;html=1;entryX=-0.007;entryY=0.988;entryDx=0;entryDy=0;startArrow=ERone;startFill=0;endArrow=ERmany;endFill=0;elbow=vertical;entryPerimeter=0;" parent="KrHck_5sRDtyPcJlfYBD-1" target="6DB9jGM7YST2FP24-loR-2" edge="1">
                    <mxGeometry relative="1" as="geometry">
                        <Array as="points">
                            <mxPoint x="111" y="400"/>
                        </Array>
                        <mxPoint x="111" y="270" as="sourcePoint"/>
                    </mxGeometry>
                </mxCell>
                <mxCell id="cEmCO8K7us_lQiBmrtyH-0" value="company" style="swimlane;fontStyle=0;childLayout=stackLayout;horizontal=1;startSize=26;fillColor=#f0a30a;horizontalStack=0;resizeParent=1;resizeParentMax=0;resizeLast=0;collapsible=1;marginBottom=0;fontColor=#000000;strokeColor=#BD7000;" vertex="1" parent="KrHck_5sRDtyPcJlfYBD-1">
                    <mxGeometry x="680" y="760" width="140" height="130" as="geometry"/>
                </mxCell>
                <mxCell id="cEmCO8K7us_lQiBmrtyH-1" value="+name: string" style="text;strokeColor=none;fillColor=none;align=left;verticalAlign=top;spacingLeft=4;spacingRight=4;overflow=hidden;rotatable=0;points=[[0,0.5],[1,0.5]];portConstraint=eastwest;" vertex="1" parent="cEmCO8K7us_lQiBmrtyH-0">
                    <mxGeometry y="26" width="140" height="26" as="geometry"/>
                </mxCell>
                <mxCell id="cEmCO8K7us_lQiBmrtyH-2" value="+ company_id: int" style="text;strokeColor=none;fillColor=none;align=left;verticalAlign=top;spacingLeft=4;spacingRight=4;overflow=hidden;rotatable=0;points=[[0,0.5],[1,0.5]];portConstraint=eastwest;" vertex="1" parent="cEmCO8K7us_lQiBmrtyH-0">
                    <mxGeometry y="52" width="140" height="26" as="geometry"/>
                </mxCell>
                <mxCell id="cEmCO8K7us_lQiBmrtyH-3" value="+ phone_number:string" style="text;strokeColor=none;fillColor=none;align=left;verticalAlign=top;spacingLeft=4;spacingRight=4;overflow=hidden;rotatable=0;points=[[0,0.5],[1,0.5]];portConstraint=eastwest;" vertex="1" parent="cEmCO8K7us_lQiBmrtyH-0">
                    <mxGeometry y="78" width="140" height="26" as="geometry"/>
                </mxCell>
                <mxCell id="mZVNYPGQbPw1FUb3y9Ir-0" value="+ address: string" style="text;strokeColor=none;fillColor=none;align=left;verticalAlign=top;spacingLeft=4;spacingRight=4;overflow=hidden;rotatable=0;points=[[0,0.5],[1,0.5]];portConstraint=eastwest;" vertex="1" parent="cEmCO8K7us_lQiBmrtyH-0">
                    <mxGeometry y="104" width="140" height="26" as="geometry"/>
                </mxCell>
            </root>
        </mxGraphModel>
    </diagram>
    <diagram id="uCveBnF9cgKM3-dALir1" name="Refine and Normalize">
        <mxGraphModel dx="466" dy="909" grid="1" gridSize="10" guides="1" tooltips="1" connect="1" arrows="1" fold="1" page="1" pageScale="1" pageWidth="850" pageHeight="1100" math="0" shadow="0">
            <root>
                <mxCell id="LUD8TlbCjspWdusCLrxJ-0"/>
                <mxCell id="LUD8TlbCjspWdusCLrxJ-1" parent="LUD8TlbCjspWdusCLrxJ-0"/>
                <mxCell id="52ig1-Baa7ARVMynx-Nx-27" value="User" style="swimlane;fontStyle=1;align=center;verticalAlign=top;childLayout=stackLayout;horizontal=1;startSize=26;horizontalStack=0;resizeParent=1;resizeParentMax=0;resizeLast=0;collapsible=1;marginBottom=0;fillColor=#f0a30a;fontColor=#000000;strokeColor=#BD7000;" vertex="1" parent="LUD8TlbCjspWdusCLrxJ-1">
                    <mxGeometry x="20" y="100" width="210" height="182" as="geometry"/>
                </mxCell>
                <mxCell id="52ig1-Baa7ARVMynx-Nx-28" value="+ user-id: int" style="text;strokeColor=none;fillColor=none;align=left;verticalAlign=top;spacingLeft=4;spacingRight=4;overflow=hidden;rotatable=0;points=[[0,0.5],[1,0.5]];portConstraint=eastwest;" vertex="1" parent="52ig1-Baa7ARVMynx-Nx-27">
                    <mxGeometry y="26" width="210" height="26" as="geometry"/>
                </mxCell>
                <mxCell id="52ig1-Baa7ARVMynx-Nx-29" value="+ fName: string" style="text;strokeColor=none;fillColor=none;align=left;verticalAlign=top;spacingLeft=4;spacingRight=4;overflow=hidden;rotatable=0;points=[[0,0.5],[1,0.5]];portConstraint=eastwest;" vertex="1" parent="52ig1-Baa7ARVMynx-Nx-27">
                    <mxGeometry y="52" width="210" height="26" as="geometry"/>
                </mxCell>
                <mxCell id="52ig1-Baa7ARVMynx-Nx-30" value="+ lName: string" style="text;strokeColor=none;fillColor=none;align=left;verticalAlign=top;spacingLeft=4;spacingRight=4;overflow=hidden;rotatable=0;points=[[0,0.5],[1,0.5]];portConstraint=eastwest;" vertex="1" parent="52ig1-Baa7ARVMynx-Nx-27">
                    <mxGeometry y="78" width="210" height="26" as="geometry"/>
                </mxCell>
                <mxCell id="52ig1-Baa7ARVMynx-Nx-31" value="+ birthday: date" style="text;strokeColor=none;fillColor=none;align=left;verticalAlign=top;spacingLeft=4;spacingRight=4;overflow=hidden;rotatable=0;points=[[0,0.5],[1,0.5]];portConstraint=eastwest;" vertex="1" parent="52ig1-Baa7ARVMynx-Nx-27">
                    <mxGeometry y="104" width="210" height="26" as="geometry"/>
                </mxCell>
                <mxCell id="52ig1-Baa7ARVMynx-Nx-32" value="+ address: string" style="text;strokeColor=none;fillColor=none;align=left;verticalAlign=top;spacingLeft=4;spacingRight=4;overflow=hidden;rotatable=0;points=[[0,0.5],[1,0.5]];portConstraint=eastwest;" vertex="1" parent="52ig1-Baa7ARVMynx-Nx-27">
                    <mxGeometry y="130" width="210" height="26" as="geometry"/>
                </mxCell>
                <mxCell id="52ig1-Baa7ARVMynx-Nx-33" value="+ email: string" style="text;strokeColor=none;fillColor=none;align=left;verticalAlign=top;spacingLeft=4;spacingRight=4;overflow=hidden;rotatable=0;points=[[0,0.5],[1,0.5]];portConstraint=eastwest;" vertex="1" parent="52ig1-Baa7ARVMynx-Nx-27">
                    <mxGeometry y="156" width="210" height="26" as="geometry"/>
                </mxCell>
                <mxCell id="52ig1-Baa7ARVMynx-Nx-35" value="orders" style="swimlane;fontStyle=0;childLayout=stackLayout;horizontal=1;startSize=26;fillColor=#e3c800;horizontalStack=0;resizeParent=1;resizeParentMax=0;resizeLast=0;collapsible=1;marginBottom=0;fontColor=#000000;strokeColor=#B09500;" vertex="1" parent="LUD8TlbCjspWdusCLrxJ-1">
                    <mxGeometry x="260" y="360" width="220" height="130" as="geometry"/>
                </mxCell>
                <mxCell id="52ig1-Baa7ARVMynx-Nx-36" value="+ user_id: int" style="text;strokeColor=none;fillColor=none;align=left;verticalAlign=top;spacingLeft=4;spacingRight=4;overflow=hidden;rotatable=0;points=[[0,0.5],[1,0.5]];portConstraint=eastwest;" vertex="1" parent="52ig1-Baa7ARVMynx-Nx-35">
                    <mxGeometry y="26" width="220" height="26" as="geometry"/>
                </mxCell>
                <mxCell id="52ig1-Baa7ARVMynx-Nx-37" value="+ order_id: int" style="text;strokeColor=none;fillColor=none;align=left;verticalAlign=top;spacingLeft=4;spacingRight=4;overflow=hidden;rotatable=0;points=[[0,0.5],[1,0.5]];portConstraint=eastwest;" vertex="1" parent="52ig1-Baa7ARVMynx-Nx-35">
                    <mxGeometry y="52" width="220" height="26" as="geometry"/>
                </mxCell>
                <mxCell id="52ig1-Baa7ARVMynx-Nx-38" value="+ payment: string" style="text;strokeColor=none;fillColor=none;align=left;verticalAlign=top;spacingLeft=4;spacingRight=4;overflow=hidden;rotatable=0;points=[[0,0.5],[1,0.5]];portConstraint=eastwest;" vertex="1" parent="52ig1-Baa7ARVMynx-Nx-35">
                    <mxGeometry y="78" width="220" height="26" as="geometry"/>
                </mxCell>
                <mxCell id="52ig1-Baa7ARVMynx-Nx-39" value="+ date: string" style="text;strokeColor=none;fillColor=none;align=left;verticalAlign=top;spacingLeft=4;spacingRight=4;overflow=hidden;rotatable=0;points=[[0,0.5],[1,0.5]];portConstraint=eastwest;" vertex="1" parent="52ig1-Baa7ARVMynx-Nx-35">
                    <mxGeometry y="104" width="220" height="26" as="geometry"/>
                </mxCell>
                <mxCell id="52ig1-Baa7ARVMynx-Nx-40" style="edgeStyle=none;html=1;exitX=0.47;exitY=1.103;exitDx=0;exitDy=0;exitPerimeter=0;startArrow=ERmany;startFill=0;endArrow=ERone;endFill=0;" edge="1" parent="LUD8TlbCjspWdusCLrxJ-1" source="52ig1-Baa7ARVMynx-Nx-47">
                    <mxGeometry relative="1" as="geometry">
                        <mxPoint x="690" y="850" as="targetPoint"/>
                        <Array as="points">
                            <mxPoint x="549" y="850"/>
                        </Array>
                    </mxGeometry>
                </mxCell>
                <mxCell id="52ig1-Baa7ARVMynx-Nx-41" value="product" style="swimlane;fontStyle=1;align=center;verticalAlign=top;childLayout=stackLayout;horizontal=1;startSize=26;horizontalStack=0;resizeParent=1;resizeParentMax=0;resizeLast=0;collapsible=1;marginBottom=0;fillColor=#647687;fontColor=#ffffff;strokeColor=#314354;" vertex="1" parent="LUD8TlbCjspWdusCLrxJ-1">
                    <mxGeometry x="460" y="590" width="190" height="182" as="geometry"/>
                </mxCell>
                <mxCell id="52ig1-Baa7ARVMynx-Nx-42" value="+ name : string   " style="text;strokeColor=none;fillColor=none;align=left;verticalAlign=top;spacingLeft=4;spacingRight=4;overflow=hidden;rotatable=0;points=[[0,0.5],[1,0.5]];portConstraint=eastwest;" vertex="1" parent="52ig1-Baa7ARVMynx-Nx-41">
                    <mxGeometry y="26" width="190" height="26" as="geometry"/>
                </mxCell>
                <mxCell id="52ig1-Baa7ARVMynx-Nx-43" value="+ company_id : int   " style="text;strokeColor=none;fillColor=none;align=left;verticalAlign=top;spacingLeft=4;spacingRight=4;overflow=hidden;rotatable=0;points=[[0,0.5],[1,0.5]];portConstraint=eastwest;" vertex="1" parent="52ig1-Baa7ARVMynx-Nx-41">
                    <mxGeometry y="52" width="190" height="26" as="geometry"/>
                </mxCell>
                <mxCell id="52ig1-Baa7ARVMynx-Nx-44" value="+ product_id: int" style="text;strokeColor=none;fillColor=none;align=left;verticalAlign=top;spacingLeft=4;spacingRight=4;overflow=hidden;rotatable=0;points=[[0,0.5],[1,0.5]];portConstraint=eastwest;" vertex="1" parent="52ig1-Baa7ARVMynx-Nx-41">
                    <mxGeometry y="78" width="190" height="26" as="geometry"/>
                </mxCell>
                <mxCell id="52ig1-Baa7ARVMynx-Nx-45" value="+ price: int" style="text;strokeColor=none;fillColor=none;align=left;verticalAlign=top;spacingLeft=4;spacingRight=4;overflow=hidden;rotatable=0;points=[[0,0.5],[1,0.5]];portConstraint=eastwest;" vertex="1" parent="52ig1-Baa7ARVMynx-Nx-41">
                    <mxGeometry y="104" width="190" height="26" as="geometry"/>
                </mxCell>
                <mxCell id="52ig1-Baa7ARVMynx-Nx-46" value="+ description: text" style="text;strokeColor=none;fillColor=none;align=left;verticalAlign=top;spacingLeft=4;spacingRight=4;overflow=hidden;rotatable=0;points=[[0,0.5],[1,0.5]];portConstraint=eastwest;" vertex="1" parent="52ig1-Baa7ARVMynx-Nx-41">
                    <mxGeometry y="130" width="190" height="26" as="geometry"/>
                </mxCell>
                <mxCell id="52ig1-Baa7ARVMynx-Nx-47" value="+ description: text" style="text;strokeColor=none;fillColor=none;align=left;verticalAlign=top;spacingLeft=4;spacingRight=4;overflow=hidden;rotatable=0;points=[[0,0.5],[1,0.5]];portConstraint=eastwest;" vertex="1" parent="52ig1-Baa7ARVMynx-Nx-41">
                    <mxGeometry y="156" width="190" height="26" as="geometry"/>
                </mxCell>
                <mxCell id="52ig1-Baa7ARVMynx-Nx-48" style="edgeStyle=none;html=1;entryX=-0.007;entryY=0.988;entryDx=0;entryDy=0;startArrow=ERone;startFill=0;endArrow=ERmany;endFill=0;elbow=vertical;entryPerimeter=0;" edge="1" parent="LUD8TlbCjspWdusCLrxJ-1" target="52ig1-Baa7ARVMynx-Nx-36">
                    <mxGeometry relative="1" as="geometry">
                        <Array as="points">
                            <mxPoint x="121" y="410"/>
                        </Array>
                        <mxPoint x="121" y="280" as="sourcePoint"/>
                    </mxGeometry>
                </mxCell>
                <mxCell id="52ig1-Baa7ARVMynx-Nx-49" value="company" style="swimlane;fontStyle=0;childLayout=stackLayout;horizontal=1;startSize=26;fillColor=#f0a30a;horizontalStack=0;resizeParent=1;resizeParentMax=0;resizeLast=0;collapsible=1;marginBottom=0;fontColor=#000000;strokeColor=#BD7000;" vertex="1" parent="LUD8TlbCjspWdusCLrxJ-1">
                    <mxGeometry x="690" y="770" width="140" height="130" as="geometry"/>
                </mxCell>
                <mxCell id="52ig1-Baa7ARVMynx-Nx-50" value="+name: string" style="text;strokeColor=none;fillColor=none;align=left;verticalAlign=top;spacingLeft=4;spacingRight=4;overflow=hidden;rotatable=0;points=[[0,0.5],[1,0.5]];portConstraint=eastwest;" vertex="1" parent="52ig1-Baa7ARVMynx-Nx-49">
                    <mxGeometry y="26" width="140" height="26" as="geometry"/>
                </mxCell>
                <mxCell id="52ig1-Baa7ARVMynx-Nx-51" value="+ company_id: int" style="text;strokeColor=none;fillColor=none;align=left;verticalAlign=top;spacingLeft=4;spacingRight=4;overflow=hidden;rotatable=0;points=[[0,0.5],[1,0.5]];portConstraint=eastwest;" vertex="1" parent="52ig1-Baa7ARVMynx-Nx-49">
                    <mxGeometry y="52" width="140" height="26" as="geometry"/>
                </mxCell>
                <mxCell id="52ig1-Baa7ARVMynx-Nx-52" value="+ phone_number:string" style="text;strokeColor=none;fillColor=none;align=left;verticalAlign=top;spacingLeft=4;spacingRight=4;overflow=hidden;rotatable=0;points=[[0,0.5],[1,0.5]];portConstraint=eastwest;" vertex="1" parent="52ig1-Baa7ARVMynx-Nx-49">
                    <mxGeometry y="78" width="140" height="26" as="geometry"/>
                </mxCell>
                <mxCell id="52ig1-Baa7ARVMynx-Nx-53" value="+ address: string" style="text;strokeColor=none;fillColor=none;align=left;verticalAlign=top;spacingLeft=4;spacingRight=4;overflow=hidden;rotatable=0;points=[[0,0.5],[1,0.5]];portConstraint=eastwest;" vertex="1" parent="52ig1-Baa7ARVMynx-Nx-49">
                    <mxGeometry y="104" width="140" height="26" as="geometry"/>
                </mxCell>
                <mxCell id="52ig1-Baa7ARVMynx-Nx-59" style="edgeStyle=none;html=1;entryX=0.511;entryY=1;entryDx=0;entryDy=0;entryPerimeter=0;startArrow=ERmany;startFill=0;endArrow=ERone;endFill=0;" edge="1" parent="LUD8TlbCjspWdusCLrxJ-1" source="52ig1-Baa7ARVMynx-Nx-54" target="52ig1-Baa7ARVMynx-Nx-39">
                    <mxGeometry relative="1" as="geometry">
                        <Array as="points">
                            <mxPoint x="190" y="520"/>
                            <mxPoint x="372" y="520"/>
                        </Array>
                    </mxGeometry>
                </mxCell>
                <mxCell id="52ig1-Baa7ARVMynx-Nx-54" value="order_item" style="swimlane;fontStyle=0;childLayout=stackLayout;horizontal=1;startSize=26;fillColor=#e3c800;horizontalStack=0;resizeParent=1;resizeParentMax=0;resizeLast=0;collapsible=1;marginBottom=0;fontColor=#000000;strokeColor=#B09500;" vertex="1" parent="LUD8TlbCjspWdusCLrxJ-1">
                    <mxGeometry x="80" y="629" width="220" height="104" as="geometry"/>
                </mxCell>
                <mxCell id="52ig1-Baa7ARVMynx-Nx-60" value="+ order_id: int" style="text;strokeColor=none;fillColor=none;align=left;verticalAlign=top;spacingLeft=4;spacingRight=4;overflow=hidden;rotatable=0;points=[[0,0.5],[1,0.5]];portConstraint=eastwest;" vertex="1" parent="52ig1-Baa7ARVMynx-Nx-54">
                    <mxGeometry y="26" width="220" height="26" as="geometry"/>
                </mxCell>
                <mxCell id="52ig1-Baa7ARVMynx-Nx-56" value="+ product_id: int" style="text;strokeColor=none;fillColor=none;align=left;verticalAlign=top;spacingLeft=4;spacingRight=4;overflow=hidden;rotatable=0;points=[[0,0.5],[1,0.5]];portConstraint=eastwest;" vertex="1" parent="52ig1-Baa7ARVMynx-Nx-54">
                    <mxGeometry y="52" width="220" height="26" as="geometry"/>
                </mxCell>
                <mxCell id="52ig1-Baa7ARVMynx-Nx-57" value="+ amount: int" style="text;strokeColor=none;fillColor=none;align=left;verticalAlign=top;spacingLeft=4;spacingRight=4;overflow=hidden;rotatable=0;points=[[0,0.5],[1,0.5]];portConstraint=eastwest;" vertex="1" parent="52ig1-Baa7ARVMynx-Nx-54">
                    <mxGeometry y="78" width="220" height="26" as="geometry"/>
                </mxCell>
                <mxCell id="52ig1-Baa7ARVMynx-Nx-61" style="edgeStyle=none;html=1;startArrow=ERmany;startFill=0;endArrow=ERone;endFill=0;" edge="1" parent="LUD8TlbCjspWdusCLrxJ-1" source="52ig1-Baa7ARVMynx-Nx-60" target="52ig1-Baa7ARVMynx-Nx-44">
                    <mxGeometry relative="1" as="geometry"/>
                </mxCell>
            </root>
        </mxGraphModel>
    </diagram>
</mxfile>